<?xml version="1.0" standalone="no"?>
<!DOCTYPE svg PUBLIC "-//W3C//DTD SVG 20010904//EN"
 "http://www.w3.org/TR/2001/REC-SVG-20010904/DTD/svg10.dtd">
<svg version="1.0" xmlns="http://www.w3.org/2000/svg"
 width="1041.000000pt" height="641.000000pt" viewBox="0 0 1041.000000 641.000000"
 preserveAspectRatio="xMidYMid meet">

<g transform="translate(0.000000,641.000000) scale(0.100000,-0.100000)"
fill="#000000" stroke="none">
<path d="M4120 6268 c80 -79 274 -269 431 -423 l286 -280 37 -87 36 -86 0
-741 0 -741 956 -1228 c526 -675 959 -1229 962 -1232 3 -3 2 369 -2 827 l-6
832 42 6 c24 3 183 5 353 3 l310 -3 80 -29 c369 -132 624 -381 728 -711 42
-135 50 -217 51 -575 1 -357 -2 -383 -55 -542 -89 -269 -280 -493 -532 -624
-134 -70 -217 -95 -327 -101 -115 -7 -188 10 -304 68 -92 46 -160 95 -228 164
-26 26 -1025 1305 -2219 2842 l-2171 2793 -1255 0 c-752 0 -1253 -4 -1251 -9
1 -5 156 -175 343 -377 187 -202 359 -390 383 -418 58 -68 109 -161 141 -254
l26 -77 3 -1956 2 -1955 -79 -160 c-189 -381 -449 -755 -746 -1074 l-107 -115
1223 -3 c672 -1 1225 0 1228 3 3 3 -27 38 -66 78 -288 296 -558 683 -765 1102
l-90 180 8 1528 c3 840 9 1585 13 1655 l6 127 1823 -2338 1824 -2337 1699 0
c1124 0 1733 4 1797 11 597 64 1094 352 1399 809 115 171 211 409 259 635 37
176 43 406 15 575 -97 591 -453 1070 -989 1332 l-103 51 90 47 c144 77 238
147 362 270 124 124 200 228 273 376 110 224 171 526 146 732 -99 827 -694
1431 -1513 1536 -90 12 -365 16 -1412 20 -715 3 -1741 9 -2280 12 l-980 5 145
-143z m3502 -550 c114 -54 173 -94 247 -163 113 -106 199 -245 246 -397 l27
-86 -5 -359 c-5 -411 -7 -425 -89 -593 -45 -92 -62 -116 -147 -201 -86 -86
-108 -102 -201 -147 -172 -82 -187 -85 -562 -89 l-328 -4 0 1046 0 1046 358
-3 357 -3 97 -47z"/>
</g>
</svg>
